<?xml version="1.0" encoding="UTF-8" standalone="no"?>
<svg
   xmlns:dc="http://purl.org/dc/elements/1.1/"
   xmlns:cc="http://creativecommons.org/ns#"
   xmlns:rdf="http://www.w3.org/1999/02/22-rdf-syntax-ns#"
   xmlns:svg="http://www.w3.org/2000/svg"
   xmlns="http://www.w3.org/2000/svg"
   xmlns:sodipodi="http://sodipodi.sourceforge.net/DTD/sodipodi-0.dtd"
   xmlns:inkscape="http://www.inkscape.org/namespaces/inkscape"
   width="500"
   height="500"
   viewBox="-5 -5 510 510"
   version="1.1"
   id="svg12"
   sodipodi:docname="boundedRing.svg"
   inkscape:version="0.92.4 (5da689c313, 2019-01-14)">
  <metadata
     id="metadata18">
    <rdf:RDF>
      <cc:Work
         rdf:about="">
        <dc:format>image/svg+xml</dc:format>
        <dc:type
           rdf:resource="http://purl.org/dc/dcmitype/StillImage" />
        <dc:title />
      </cc:Work>
    </rdf:RDF>
  </metadata>
  <defs
     id="defs16" />
  <sodipodi:namedview
     pagecolor="#ffffff"
     bordercolor="#666666"
     borderopacity="1"
     objecttolerance="10"
     gridtolerance="10"
     guidetolerance="10"
     inkscape:pageopacity="0"
     inkscape:pageshadow="2"
     inkscape:window-width="1920"
     inkscape:window-height="1017"
     id="namedview14"
     showgrid="false"
     inkscape:pagecheckerboard="true"
     inkscape:zoom="1.28"
     inkscape:cx="74.46074"
     inkscape:cy="450.71026"
     inkscape:window-x="-8"
     inkscape:window-y="32"
     inkscape:window-maximized="1"
     inkscape:current-layer="svg12" />
  <g
     id="sector"
     transform="matrix(1.0119048,0,0,1.0119048,-2.9762,502.9762)"
     style="fill:none">
    <path
       d="M 0,-500 A 500,500 0 0 1 500,0 H 375 A 375,375 0 0 0 0,-375 Z"
       id="path2"
       style="fill:none;stroke:#000000;stroke-width:4"
       inkscape:connector-curvature="0" />
    <path
       d="M 0,-375 A 375,375 0 0 1 375,0 H 250 A 250,250 0 0 0 0,-250 Z"
       id="path4"
       style="fill:none;stroke:#000000;stroke-width:4"
       inkscape:connector-curvature="0" />
    <path
       id="padding"
       d="M 2,-365 A 365,365 0 0 1 365,-2 M 260,-2 A 260,260 0 0 0 2,-260 m 0,-105 z"
       style="fill:none;stroke:#b8c47f;stroke-width:16"
       inkscape:connector-curvature="0" />
    <path
       d="M 0,-250 A 250,250 0 0 1 250,0 H 125 A 125,125 0 0 0 0,-125 Z"
       id="path7"
       style="fill:none;stroke:#000000;stroke-width:4"
       inkscape:connector-curvature="0" />
    <path
       d="M 0,-125 A 125,125 0 0 1 125,0 H 0 Z"
       id="path9"
       style="fill:none;stroke:#000000;stroke-width:4"
       inkscape:connector-curvature="0" />
  </g>
</svg>
